<?xml version="1.0" encoding="UTF-8"?>
<svg id="Layer_2" data-name="Layer 2" xmlns="http://www.w3.org/2000/svg" viewBox="0 0 803.62 476.71">
  <g id="Layer_2-2" data-name="Layer 2">
    <g>
      <g>
        <path d="M5.12,0h129.83v372.88H5.12V0Z" fill="#161a24"/>
        <path d="M152.37,0l187.48,184.88V9.35h129.83v363.53H152.37V0Z" fill="#161a24"/>
        <g>
          <path d="M525.36,265.76v107.12h11.68v-108.87l53.87,39.85v-38.1h39.42l.14,107.12h41.78c-20.23-8.29-34.19-29.22-34.19-54.42,0-30.51,25.92-54.16,55.7-54.16,8.47,0,11.42.39,18.25,1.46l4.23,37.08c-1.46-.58-7.01-2.77-14.45-2.77-12.41,0-23.58,7.88-23.58,19.71,0,12.7,8.32,21.17,20.73,21.17,11.09,0,17.23-3.5,19.85-5.11v37.05h24.88c-6.8-3.2-11.51-10.08-11.51-18.09,0-11.05,8.96-20,20-20s20,8.96,20,20c0,8.01-4.72,14.9-11.51,18.09h37.02l-124.64-200.46L793.51,9.35h-306.41v256.42h38.26Z" fill="#161a24"/>
          <polygon points="576.45 372.88 624.94 372.88 576.45 336.71 576.45 372.88" fill="#161a24"/>
        </g>
      </g>
      <g>
        <path d="M5.99,412.01h4.46v46.55l-2.3-3.42h27.08v4.11H5.99v-47.24Z" fill="#161a24"/>
        <path d="M43.23,445.59c-1.21-3.03-1.81-6.36-1.81-9.96s.6-6.93,1.81-9.96c1.21-3.04,2.93-5.65,5.19-7.84,2.25-2.19,4.91-3.89,7.97-5.1,3.06-1.21,6.45-1.81,10.16-1.81s7.04.61,10.13,1.81c3.08,1.21,5.74,2.91,7.97,5.1,2.23,2.19,3.96,4.8,5.19,7.84,1.23,3.04,1.85,6.36,1.85,9.96s-.62,6.93-1.85,9.96c-1.23,3.04-2.96,5.65-5.19,7.84s-4.89,3.89-7.97,5.1c-3.09,1.21-6.46,1.81-10.13,1.81s-7.1-.61-10.16-1.81c-3.06-1.21-5.72-2.91-7.97-5.1-2.25-2.19-3.98-4.8-5.19-7.84ZM87.09,435.63c0-4.11-.88-7.69-2.65-10.75-1.76-3.06-4.19-5.45-7.27-7.19-3.09-1.73-6.63-2.6-10.62-2.6s-7.53.87-10.62,2.6c-3.09,1.73-5.51,4.13-7.28,7.19-1.76,3.06-2.65,6.64-2.65,10.75s.88,7.69,2.65,10.75c1.76,3.06,4.19,5.45,7.28,7.19,3.08,1.74,6.62,2.6,10.62,2.6s7.53-.87,10.62-2.6c3.08-1.73,5.51-4.13,7.27-7.19,1.76-3.06,2.65-6.64,2.65-10.75Z" fill="#161a24"/>
        <path d="M105.33,448.09c-2.23-3.65-3.34-7.94-3.34-12.87s1.14-8.82,3.41-12.36c2.27-3.54,5.44-6.29,9.5-8.25,4.06-1.96,8.81-2.94,14.24-2.94.79,0,1.64.05,2.54.14.9.09,1.66.21,2.26.34v4.18c-.51-.14-1.24-.25-2.19-.34-.95-.09-1.82-.14-2.61-.14-4.46,0-8.38.8-11.76,2.4-3.39,1.6-6.03,3.83-7.94,6.71-1.9,2.88-2.85,6.28-2.85,10.2s.94,7.61,2.82,10.65c1.88,3.04,4.5,5.4,7.87,7.09,3.36,1.69,7.25,2.53,11.66,2.53.97,0,1.96-.04,2.96-.14,1-.09,1.8-.18,2.4-.27v4.18c-.7.14-1.52.24-2.47.31s-1.96.1-3.03.1c-5.34,0-10.02-1-14.06-3.01-4.04-2.01-7.17-4.84-9.4-8.49Z" fill="#161a24"/>
        <path d="M165.89,411.26h.7l23.39,47.99h-5.01l-6.2-13.14-13.85-29.1h2.65l-13.78,29.23-6.33,13.01h-4.94l23.39-47.99ZM152.25,444.33h28.05l2.02,4.04h-32.09l2.02-4.04Z" fill="#161a24"/>
        <path d="M199.93,412.01h4.46v46.55l-2.3-3.42h27.08v4.11h-29.24v-47.24Z" fill="#161a24"/>
        <path d="M268.15,416.12h-15.32v-4.11h35.02v4.11h-15.25v43.13h-4.46v-43.13Z" fill="#161a24"/>
        <path d="M312.7,411.26h.7l23.39,47.99h-5.01l-6.2-13.14-13.85-29.1h2.65l-13.78,29.23-6.33,13.01h-4.94l23.39-47.99ZM299.06,444.33h28.05l2.02,4.04h-32.09l2.02-4.04Z" fill="#161a24"/>
        <path d="M353.57,416.12h-15.32v-4.11h35.02v4.11h-15.25v43.13h-4.46v-43.13Z" fill="#161a24"/>
        <path d="M394.85,416.12h-15.32v-4.11h35.02v4.11h-15.25v43.13h-4.46v-43.13Z" fill="#161a24"/>
        <path d="M422.62,445.59c-1.21-3.03-1.81-6.36-1.81-9.96s.6-6.93,1.81-9.96c1.21-3.04,2.93-5.65,5.19-7.84,2.25-2.19,4.91-3.89,7.97-5.1,3.06-1.21,6.45-1.81,10.16-1.81s7.04.61,10.13,1.81c3.08,1.21,5.74,2.91,7.97,5.1,2.23,2.19,3.96,4.8,5.19,7.84,1.23,3.04,1.85,6.36,1.85,9.96s-.62,6.93-1.85,9.96c-1.23,3.04-2.96,5.65-5.19,7.84s-4.89,3.89-7.97,5.1c-3.09,1.21-6.46,1.81-10.13,1.81s-7.1-.61-10.16-1.81c-3.06-1.21-5.72-2.91-7.97-5.1-2.25-2.19-3.98-4.8-5.19-7.84ZM466.48,435.63c0-4.11-.88-7.69-2.65-10.75-1.76-3.06-4.19-5.45-7.27-7.19-3.09-1.73-6.63-2.6-10.62-2.6s-7.53.87-10.62,2.6c-3.09,1.73-5.51,4.13-7.28,7.19-1.76,3.06-2.65,6.64-2.65,10.75s.88,7.69,2.65,10.75c1.76,3.06,4.19,5.45,7.28,7.19,3.08,1.74,6.62,2.6,10.62,2.6s7.53-.87,10.62-2.6c3.08-1.73,5.51-4.13,7.27-7.19,1.76-3.06,2.65-6.64,2.65-10.75Z" fill="#161a24"/>
        <path d="M483.19,445.59c-1.21-3.03-1.81-6.36-1.81-9.96s.6-6.93,1.81-9.96c1.21-3.04,2.93-5.65,5.19-7.84,2.25-2.19,4.91-3.89,7.97-5.1,3.06-1.21,6.45-1.81,10.16-1.81s7.04.61,10.13,1.81c3.08,1.21,5.74,2.91,7.97,5.1,2.23,2.19,3.96,4.8,5.19,7.84,1.23,3.04,1.85,6.36,1.85,9.96s-.62,6.93-1.85,9.96c-1.23,3.04-2.96,5.65-5.19,7.84s-4.89,3.89-7.97,5.1c-3.09,1.21-6.46,1.81-10.13,1.81s-7.1-.61-10.16-1.81c-3.06-1.21-5.72-2.91-7.97-5.1-2.25-2.19-3.98-4.8-5.19-7.84ZM527.05,435.63c0-4.11-.88-7.69-2.65-10.75-1.76-3.06-4.19-5.45-7.27-7.19-3.09-1.73-6.63-2.6-10.62-2.6s-7.53.87-10.62,2.6c-3.09,1.73-5.51,4.13-7.28,7.19-1.76,3.06-2.65,6.64-2.65,10.75s.88,7.69,2.65,10.75c1.76,3.06,4.19,5.45,7.28,7.19,3.08,1.74,6.62,2.6,10.62,2.6s7.53-.87,10.62-2.6c3.08-1.73,5.51-4.13,7.27-7.19,1.76-3.06,2.65-6.64,2.65-10.75Z" fill="#161a24"/>
        <path d="M559.49,454.73c.88.23,1.95.41,3.2.55,1.25.14,2.44.21,3.55.21,3.48,0,6.24-.74,8.28-2.22,2.04-1.48,3.06-3.57,3.06-6.26,0-1.96-.59-3.72-1.78-5.27-1.18-1.55-3.21-3.26-6.09-5.13l-3.76-2.46c-2.41-1.55-4.19-3.23-5.33-5.03-1.14-1.8-1.71-3.8-1.71-5.99,0-3.51,1.36-6.3,4.07-8.35,2.72-2.05,6.37-3.08,10.96-3.08.6,0,1.21.02,1.81.07.6.05,1.19.1,1.78.17.58.07,1.08.15,1.5.24v4.11c-.6-.14-1.38-.25-2.33-.34-.95-.09-1.89-.14-2.82-.14-3.16,0-5.65.64-7.48,1.92-1.83,1.28-2.75,3.06-2.75,5.34,0,1.6.41,2.98,1.22,4.14.81,1.16,2.24,2.41,4.28,3.73l3.76,2.4c2.27,1.51,4.09,2.97,5.46,4.38,1.37,1.42,2.37,2.88,2.99,4.38.63,1.51.94,3.15.94,4.93,0,3.93-1.42,7.01-4.25,9.24-2.83,2.24-6.71,3.35-11.63,3.35-1.21,0-2.46-.07-3.76-.21-1.3-.14-2.37-.32-3.2-.55v-4.11Z" fill="#161a24"/>
        <path d="M603.55,416.12h-15.32v-4.11h35.02v4.11h-15.25v43.13h-4.46v-43.13Z" fill="#161a24"/>
        <path d="M633.7,412.01h4.39v30.94c0,4.34,1.03,7.61,3.1,9.82,2.06,2.21,4.98,3.32,8.74,3.32s6.66-1.11,8.7-3.32c2.04-2.21,3.06-5.49,3.06-9.82v-30.94h4.46v31.63c0,3.52-.64,6.53-1.91,9.04-1.28,2.51-3.12,4.42-5.53,5.72-2.41,1.3-5.34,1.95-8.77,1.95s-6.43-.65-8.84-1.95-4.25-3.21-5.5-5.72c-1.25-2.51-1.88-5.52-1.88-9.04v-31.63Z" fill="#161a24"/>
        <path d="M680.96,412.01h11.76c5.66,0,10.51.95,14.55,2.84,4.04,1.89,7.15,4.6,9.33,8.11,2.18,3.52,3.27,7.74,3.27,12.67s-1.09,9.15-3.27,12.67c-2.18,3.52-5.29,6.22-9.33,8.11-4.04,1.89-8.89,2.84-14.55,2.84h-11.76v-47.24ZM683.12,455.14h10.3c4.46,0,8.32-.8,11.59-2.4,3.27-1.6,5.79-3.87,7.55-6.81,1.76-2.94,2.65-6.38,2.65-10.3s-.88-7.42-2.65-10.34c-1.76-2.92-4.28-5.18-7.55-6.78-3.27-1.6-7.14-2.4-11.59-2.4h-10.3l2.3-3.42v45.87l-2.3-3.42Z" fill="#161a24"/>
        <path d="M732.62,412.01h4.46v47.24h-4.46v-47.24Z" fill="#161a24"/>
        <path d="M751.69,445.59c-1.21-3.03-1.81-6.36-1.81-9.96s.6-6.93,1.81-9.96c1.21-3.04,2.93-5.65,5.19-7.84,2.25-2.19,4.91-3.89,7.97-5.1,3.06-1.21,6.45-1.81,10.16-1.81s7.04.61,10.13,1.81c3.08,1.21,5.74,2.91,7.97,5.1,2.23,2.19,3.96,4.8,5.19,7.84,1.23,3.04,1.85,6.36,1.85,9.96s-.62,6.93-1.85,9.96c-1.23,3.04-2.96,5.65-5.19,7.84s-4.89,3.89-7.97,5.1c-3.09,1.21-6.46,1.81-10.13,1.81s-7.1-.61-10.16-1.81c-3.06-1.21-5.72-2.91-7.97-5.1-2.25-2.19-3.98-4.8-5.19-7.84ZM795.55,435.63c0-4.11-.88-7.69-2.65-10.75-1.76-3.06-4.19-5.45-7.27-7.19-3.09-1.73-6.63-2.6-10.62-2.6s-7.53.87-10.62,2.6c-3.09,1.73-5.51,4.13-7.28,7.19-1.76,3.06-2.65,6.64-2.65,10.75s.88,7.69,2.65,10.75c1.76,3.06,4.19,5.45,7.28,7.19,3.08,1.74,6.62,2.6,10.62,2.6s7.53-.87,10.62-2.6c3.08-1.73,5.51-4.13,7.27-7.19,1.76-3.06,2.65-6.64,2.65-10.75Z" fill="#161a24"/>
      </g>
    </g>
  </g>
</svg>